<?xml version="1.0" standalone="no"?>
<!DOCTYPE svg PUBLIC "-//W3C//DTD SVG 20010904//EN"
 "http://www.w3.org/TR/2001/REC-SVG-20010904/DTD/svg10.dtd">
<svg version="1.0" xmlns="http://www.w3.org/2000/svg"
 width="256.000000pt" height="256.000000pt" viewBox="0 0 256.000000 256.000000"
 preserveAspectRatio="xMidYMid meet">
<metadata>
Created by potrace 1.11, written by Peter Selinger 2001-2013
</metadata>
<g transform="translate(0.000000,256.000000) scale(0.100000,-0.100000)"
fill="#000000" stroke="none">
<path d="M1075 2545 c-285 -52 -505 -165 -700 -361 -188 -189 -314 -430 -359
-689 -14 -79 -15 -370 -2 -425 3 -14 8 -35 10 -48 72 -355 317 -688 640 -866
51 -28 206 -95 235 -101 9 -2 54 -13 101 -25 65 -17 122 -23 245 -25 174 -4
230 2 374 40 348 90 657 349 815 680 44 94 79 187 92 246 34 161 42 383 17
524 -91 530 -506 949 -1036 1045 -117 21 -331 24 -432 5z"/>
</g>
</svg>
