<svg xmlns="http://www.w3.org/2000/svg" width="512" height="512">
  <path fill="#fff" d="M0 0h512v512H0z"/>
  <g fill="#193e4f">
    <path d="m161 266 21-134h-22c-11 0-25-6-29-17-1-4-4-16 13-29 7-4 11-9 12-13 0-4-1-7-3-10-4-3-12-6-22-6-16 0-27 10-28 17-1 5 3 9 6 11 10 8 13 19 6 29-6 11-20 18-35 18H57L21 361h125l15-95zM14 408h51c22 0 28 11 26 21-1 9-7 15-17 19 13 4 17 12 16 23-3 15-15 25-31 25H0zm34 36c10 0 15-5 15-11 1-7-2-12-12-12h-9l-3 23zm-6 38c11 0 17-4 18-12s-3-12-13-12H37l-4 25h9zM162 497c-14 1-20-1-23-6-7 4-15 6-24 6-15 0-20-8-19-16 1-5 3-9 7-12 9-7 29-8 37-14 1-6-1-8-9-8-9 0-16 3-29 11l3-20c11-8 22-11 34-11 16 0 29 6 27 23l-3 20c-1 6-1 9 7 9zm-23-31c-8 5-21 4-22 13-1 5 2 8 6 8s10-2 14-5v-6zM187 428h27l-2 9c9-8 15-10 24-10 15 0 22 9 19 24l-7 45h-27l6-37c1-7-1-10-6-10-4 0-8 2-12 7l-6 40h-27zM276 408h27l-7 43 26-23h33l-33 29 27 39h-34l-21-32-5 32h-27zM371 408h31l-14 88h-31zM417 408h44c34 0 44 25 41 45s-19 43-49 43h-50zm28 67c15 0 24-7 26-23 2-12-2-23-18-23h-9l-7 46zM330 15H202l-18 108h22c12 0 24-5 28-13l3-7c0-5-3-8-7-10-8-7-10-13-10-18v-2c2-12 18-24 38-24 13 0 22 3 28 8 5 5 7 11 5 18-2 8-10 15-15 19-12 8-10 16-10 18 3 7 13 11 20 11h34c45 1 69 22 61 70-7 45-41 64-82 65l-17 104h24c102 0 185-65 201-169C528 66 446 15 330 15z"/>
  </g>
</svg>
